<mxfile host="app.diagrams.net" agent="Mozilla/5.0 (Windows NT 10.0; Win64; x64) AppleWebKit/537.36 (KHTML, like Gecko) Chrome/135.0.0.0 Safari/537.36" version="26.2.12">
  <diagram id="6a731a19-8d31-9384-78a2-239565b7b9f0" name="Page-1">
    <mxGraphModel dx="2568" dy="1128" grid="1" gridSize="10" guides="1" tooltips="1" connect="1" arrows="1" fold="1" page="1" pageScale="1" pageWidth="827" pageHeight="1169" background="none" math="0" shadow="0">
      <root>
        <mxCell id="0" />
        <mxCell id="1" parent="0" />
        <mxCell id="13KXB2IReWYyAwwkc7vi-2257" value="&lt;font style=&quot;font-size: 18px;&quot;&gt;2 wi-fi modem (LT) + 1 wi-fi modem (LV)&lt;/font&gt;" style="rounded=0;whiteSpace=wrap;html=1;" vertex="1" parent="1">
          <mxGeometry x="440" y="200" width="380" height="60" as="geometry" />
        </mxCell>
        <mxCell id="13KXB2IReWYyAwwkc7vi-2258" value="&lt;span style=&quot;font-size: 18px;&quot;&gt;2 wi-fi modem (LT) + 1 wi-fi modem (LV)&lt;/span&gt;" style="rounded=0;whiteSpace=wrap;html=1;" vertex="1" parent="1">
          <mxGeometry x="440" y="300" width="380" height="60" as="geometry" />
        </mxCell>
        <mxCell id="13KXB2IReWYyAwwkc7vi-2259" value="&lt;font style=&quot;font-size: 18px;&quot;&gt;6 wi-fi modem (LT) + 2 wi-fi modem (LV),&amp;nbsp;&lt;/font&gt;&lt;font style=&quot;font-size: 18px;&quot;&gt;1 hub, 1 wi-fi modem (TH), 1&lt;/font&gt;&lt;span style=&quot;font-size: 18px;&quot;&gt;&amp;nbsp;Ethernet Port (TH)&lt;/span&gt;" style="rounded=0;whiteSpace=wrap;html=1;" vertex="1" parent="1">
          <mxGeometry x="440" y="400" width="440" height="60" as="geometry" />
        </mxCell>
        <mxCell id="13KXB2IReWYyAwwkc7vi-2260" value="&lt;font style=&quot;font-size: 18px;&quot;&gt;6 wi-fi modem (LT) + 2 wi-fi modem (LV), 1&lt;/font&gt;&lt;font style=&quot;font-size: 18px;&quot;&gt;&amp;nbsp;hub, 1 wi-fi modem (TH), 1&lt;/font&gt;&lt;span style=&quot;font-size: 18px;&quot;&gt;&amp;nbsp;Ethernet Port (TH)&lt;/span&gt;" style="rounded=0;whiteSpace=wrap;html=1;" vertex="1" parent="1">
          <mxGeometry x="440" y="480" width="440" height="60" as="geometry" />
        </mxCell>
        <mxCell id="13KXB2IReWYyAwwkc7vi-2261" value="&lt;font style=&quot;font-size: 18px;&quot;&gt;9 wi-fi modem (LT) + 4 wi-fi modem (LV) + 2 hub, 2 wi-fi modem (TH),&amp;nbsp;&lt;/font&gt;&lt;span style=&quot;font-size: 18px;&quot;&gt;2&amp;nbsp;Ethernet Port (TH)&lt;/span&gt;" style="rounded=0;whiteSpace=wrap;html=1;" vertex="1" parent="1">
          <mxGeometry x="440" y="560" width="570" height="60" as="geometry" />
        </mxCell>
        <mxCell id="13KXB2IReWYyAwwkc7vi-2262" value="&lt;font style=&quot;font-size: 18px;&quot;&gt;9 wi-fi modem (LT) + 4 wi-fi modem (LV) + 2 hub, 2 wi-fi modem (TH),&amp;nbsp;&lt;/font&gt;&lt;span style=&quot;font-size: 18px;&quot;&gt;2&amp;nbsp;Ethernet Port (TH)&lt;/span&gt;" style="rounded=0;whiteSpace=wrap;html=1;" vertex="1" parent="1">
          <mxGeometry x="440" y="650" width="570" height="60" as="geometry" />
        </mxCell>
        <mxCell id="13KXB2IReWYyAwwkc7vi-2263" value="&lt;font style=&quot;font-size: 18px;&quot;&gt;9 wi-fi modem (LT) + 4 wi-fi modem (LV) + 2 hub, 2 wi-fi modem (TH),&amp;nbsp;&lt;/font&gt;&lt;span style=&quot;font-size: 18px;&quot;&gt;2&amp;nbsp;Ethernet Port (TH)&lt;/span&gt;" style="rounded=0;whiteSpace=wrap;html=1;" vertex="1" parent="1">
          <mxGeometry x="440" y="750" width="570" height="60" as="geometry" />
        </mxCell>
        <mxCell id="13KXB2IReWYyAwwkc7vi-2264" value="&lt;font style=&quot;font-size: 18px;&quot;&gt;9 wi-fi modem (LT) + 4 wi-fi modem (LV) + 2 hub, 2 wi-fi modem (TH),&amp;nbsp;&lt;/font&gt;&lt;span style=&quot;font-size: 18px;&quot;&gt;2&amp;nbsp;Ethernet Port (TH)&lt;/span&gt;" style="rounded=0;whiteSpace=wrap;html=1;" vertex="1" parent="1">
          <mxGeometry x="440" y="840" width="570" height="60" as="geometry" />
        </mxCell>
        <mxCell id="13KXB2IReWYyAwwkc7vi-2265" value="&lt;font style=&quot;font-size: 18px;&quot;&gt;9 wi-fi modem (LT) + 4 wi-fi modem (LV) + 2 hub, 2 wi-fi modem (TH),&amp;nbsp;&lt;/font&gt;&lt;span style=&quot;font-size: 18px;&quot;&gt;2&amp;nbsp;Ethernet Port (TH)&lt;/span&gt;" style="rounded=0;whiteSpace=wrap;html=1;" vertex="1" parent="1">
          <mxGeometry x="440" y="940" width="570" height="60" as="geometry" />
        </mxCell>
        <mxCell id="13KXB2IReWYyAwwkc7vi-2268" value="" style="shape=mxgraph.cisco.switches.layer_2_remote_switch;html=1;pointerEvents=1;dashed=0;fillColor=#036897;strokeColor=#ffffff;strokeWidth=2;verticalLabelPosition=bottom;verticalAlign=top;align=center;outlineConnect=0;" vertex="1" parent="1">
          <mxGeometry x="1140" y="945" width="101" height="50" as="geometry" />
        </mxCell>
        <mxCell id="13KXB2IReWYyAwwkc7vi-2269" value="" style="shape=mxgraph.cisco.switches.layer_2_remote_switch;html=1;pointerEvents=1;dashed=0;fillColor=#036897;strokeColor=#ffffff;strokeWidth=2;verticalLabelPosition=bottom;verticalAlign=top;align=center;outlineConnect=0;" vertex="1" parent="1">
          <mxGeometry x="1140" y="845" width="101" height="50" as="geometry" />
        </mxCell>
        <mxCell id="13KXB2IReWYyAwwkc7vi-2270" value="" style="shape=mxgraph.cisco.switches.layer_2_remote_switch;html=1;pointerEvents=1;dashed=0;fillColor=#036897;strokeColor=#ffffff;strokeWidth=2;verticalLabelPosition=bottom;verticalAlign=top;align=center;outlineConnect=0;" vertex="1" parent="1">
          <mxGeometry x="1150" y="755" width="101" height="50" as="geometry" />
        </mxCell>
        <mxCell id="13KXB2IReWYyAwwkc7vi-2271" value="" style="shape=mxgraph.cisco.switches.layer_2_remote_switch;html=1;pointerEvents=1;dashed=0;fillColor=#036897;strokeColor=#ffffff;strokeWidth=2;verticalLabelPosition=bottom;verticalAlign=top;align=center;outlineConnect=0;" vertex="1" parent="1">
          <mxGeometry x="1150" y="655" width="101" height="50" as="geometry" />
        </mxCell>
        <mxCell id="13KXB2IReWYyAwwkc7vi-2272" value="" style="shape=mxgraph.cisco.switches.layer_2_remote_switch;html=1;pointerEvents=1;dashed=0;fillColor=#036897;strokeColor=#ffffff;strokeWidth=2;verticalLabelPosition=bottom;verticalAlign=top;align=center;outlineConnect=0;" vertex="1" parent="1">
          <mxGeometry x="1150" y="565" width="101" height="50" as="geometry" />
        </mxCell>
        <mxCell id="13KXB2IReWYyAwwkc7vi-2273" value="" style="shape=mxgraph.cisco.switches.layer_2_remote_switch;html=1;pointerEvents=1;dashed=0;fillColor=#036897;strokeColor=#ffffff;strokeWidth=2;verticalLabelPosition=bottom;verticalAlign=top;align=center;outlineConnect=0;" vertex="1" parent="1">
          <mxGeometry x="960" y="450" width="101" height="50" as="geometry" />
        </mxCell>
        <mxCell id="13KXB2IReWYyAwwkc7vi-2274" value="" style="shape=mxgraph.cisco.switches.layer_2_remote_switch;html=1;pointerEvents=1;dashed=0;fillColor=#036897;strokeColor=#ffffff;strokeWidth=2;verticalLabelPosition=bottom;verticalAlign=top;align=center;outlineConnect=0;" vertex="1" parent="1">
          <mxGeometry x="930" y="250" width="101" height="50" as="geometry" />
        </mxCell>
        <mxCell id="13KXB2IReWYyAwwkc7vi-2275" value="" style="endArrow=none;html=1;rounded=0;exitX=1;exitY=0.5;exitDx=0;exitDy=0;entryX=0;entryY=0.5;entryDx=0;entryDy=0;entryPerimeter=0;" edge="1" parent="1" source="13KXB2IReWYyAwwkc7vi-2261" target="13KXB2IReWYyAwwkc7vi-2272">
          <mxGeometry width="50" height="50" relative="1" as="geometry">
            <mxPoint x="1120" y="620" as="sourcePoint" />
            <mxPoint x="1170" y="570" as="targetPoint" />
          </mxGeometry>
        </mxCell>
        <mxCell id="13KXB2IReWYyAwwkc7vi-2278" value="" style="endArrow=none;html=1;rounded=0;exitX=1;exitY=0.5;exitDx=0;exitDy=0;entryX=0;entryY=0.5;entryDx=0;entryDy=0;entryPerimeter=0;" edge="1" parent="1" source="13KXB2IReWYyAwwkc7vi-2257" target="13KXB2IReWYyAwwkc7vi-2274">
          <mxGeometry width="50" height="50" relative="1" as="geometry">
            <mxPoint x="1120" y="260" as="sourcePoint" />
            <mxPoint x="1170" y="210" as="targetPoint" />
          </mxGeometry>
        </mxCell>
        <mxCell id="13KXB2IReWYyAwwkc7vi-2279" value="" style="endArrow=none;html=1;rounded=0;exitX=1;exitY=0.5;exitDx=0;exitDy=0;entryX=0;entryY=0.5;entryDx=0;entryDy=0;entryPerimeter=0;" edge="1" parent="1" source="13KXB2IReWYyAwwkc7vi-2258" target="13KXB2IReWYyAwwkc7vi-2274">
          <mxGeometry width="50" height="50" relative="1" as="geometry">
            <mxPoint x="1120" y="260" as="sourcePoint" />
            <mxPoint x="1170" y="210" as="targetPoint" />
          </mxGeometry>
        </mxCell>
        <mxCell id="13KXB2IReWYyAwwkc7vi-2280" value="" style="endArrow=none;html=1;rounded=0;exitX=1;exitY=0.25;exitDx=0;exitDy=0;" edge="1" parent="1" source="13KXB2IReWYyAwwkc7vi-2259">
          <mxGeometry width="50" height="50" relative="1" as="geometry">
            <mxPoint x="835.5" y="385" as="sourcePoint" />
            <mxPoint x="980" y="460" as="targetPoint" />
          </mxGeometry>
        </mxCell>
        <mxCell id="13KXB2IReWYyAwwkc7vi-2281" value="" style="endArrow=none;html=1;rounded=0;exitX=1;exitY=0.5;exitDx=0;exitDy=0;" edge="1" parent="1" source="13KXB2IReWYyAwwkc7vi-2260" target="13KXB2IReWYyAwwkc7vi-2273">
          <mxGeometry width="50" height="50" relative="1" as="geometry">
            <mxPoint x="1120" y="620" as="sourcePoint" />
            <mxPoint x="1170" y="570" as="targetPoint" />
          </mxGeometry>
        </mxCell>
        <mxCell id="13KXB2IReWYyAwwkc7vi-2283" value="" style="endArrow=none;html=1;rounded=0;exitX=1;exitY=0.5;exitDx=0;exitDy=0;entryX=0;entryY=0.5;entryDx=0;entryDy=0;entryPerimeter=0;" edge="1" parent="1" source="13KXB2IReWYyAwwkc7vi-2262" target="13KXB2IReWYyAwwkc7vi-2271">
          <mxGeometry width="50" height="50" relative="1" as="geometry">
            <mxPoint x="1120" y="620" as="sourcePoint" />
            <mxPoint x="1170" y="570" as="targetPoint" />
          </mxGeometry>
        </mxCell>
        <mxCell id="13KXB2IReWYyAwwkc7vi-2284" value="" style="endArrow=none;html=1;rounded=0;exitX=1;exitY=0.5;exitDx=0;exitDy=0;" edge="1" parent="1" source="13KXB2IReWYyAwwkc7vi-2263" target="13KXB2IReWYyAwwkc7vi-2270">
          <mxGeometry width="50" height="50" relative="1" as="geometry">
            <mxPoint x="1020" y="690" as="sourcePoint" />
            <mxPoint x="1150" y="705" as="targetPoint" />
          </mxGeometry>
        </mxCell>
        <mxCell id="13KXB2IReWYyAwwkc7vi-2285" style="edgeStyle=orthogonalEdgeStyle;rounded=0;orthogonalLoop=1;jettySize=auto;html=1;exitX=0.5;exitY=1;exitDx=0;exitDy=0;exitPerimeter=0;" edge="1" parent="1" source="13KXB2IReWYyAwwkc7vi-2272" target="13KXB2IReWYyAwwkc7vi-2272">
          <mxGeometry relative="1" as="geometry" />
        </mxCell>
        <mxCell id="13KXB2IReWYyAwwkc7vi-2286" value="" style="endArrow=none;html=1;rounded=0;exitX=1;exitY=0.5;exitDx=0;exitDy=0;entryX=0;entryY=0.5;entryDx=0;entryDy=0;entryPerimeter=0;" edge="1" parent="1" source="13KXB2IReWYyAwwkc7vi-2264" target="13KXB2IReWYyAwwkc7vi-2269">
          <mxGeometry width="50" height="50" relative="1" as="geometry">
            <mxPoint x="1020" y="790" as="sourcePoint" />
            <mxPoint x="1160" y="790" as="targetPoint" />
          </mxGeometry>
        </mxCell>
        <mxCell id="13KXB2IReWYyAwwkc7vi-2287" value="" style="endArrow=none;html=1;rounded=0;exitX=1;exitY=0.5;exitDx=0;exitDy=0;" edge="1" parent="1" source="13KXB2IReWYyAwwkc7vi-2265" target="13KXB2IReWYyAwwkc7vi-2268">
          <mxGeometry width="50" height="50" relative="1" as="geometry">
            <mxPoint x="1030" y="800" as="sourcePoint" />
            <mxPoint x="1170" y="800" as="targetPoint" />
          </mxGeometry>
        </mxCell>
        <mxCell id="13KXB2IReWYyAwwkc7vi-2288" value="" style="shape=mxgraph.cisco.switches.layer_3_switch;sketch=0;html=1;pointerEvents=1;dashed=0;fillColor=#036897;strokeColor=#ffffff;strokeWidth=2;verticalLabelPosition=bottom;verticalAlign=top;align=center;outlineConnect=0;" vertex="1" parent="1">
          <mxGeometry x="1480" y="360" width="64" height="64" as="geometry" />
        </mxCell>
        <mxCell id="13KXB2IReWYyAwwkc7vi-2289" value="" style="shape=mxgraph.cisco.switches.layer_3_switch;sketch=0;html=1;pointerEvents=1;dashed=0;fillColor=#036897;strokeColor=#ffffff;strokeWidth=2;verticalLabelPosition=bottom;verticalAlign=top;align=center;outlineConnect=0;" vertex="1" parent="1">
          <mxGeometry x="1490" y="800" width="64" height="64" as="geometry" />
        </mxCell>
        <mxCell id="13KXB2IReWYyAwwkc7vi-2291" value="" style="endArrow=none;html=1;rounded=0;entryX=0;entryY=0.5;entryDx=0;entryDy=0;entryPerimeter=0;" edge="1" parent="1" target="13KXB2IReWYyAwwkc7vi-2288">
          <mxGeometry width="50" height="50" relative="1" as="geometry">
            <mxPoint x="1031" y="275" as="sourcePoint" />
            <mxPoint x="1160" y="600" as="targetPoint" />
          </mxGeometry>
        </mxCell>
        <mxCell id="13KXB2IReWYyAwwkc7vi-2292" value="" style="endArrow=none;html=1;rounded=0;exitX=1;exitY=0.5;exitDx=0;exitDy=0;exitPerimeter=0;" edge="1" parent="1" source="13KXB2IReWYyAwwkc7vi-2273" target="13KXB2IReWYyAwwkc7vi-2288">
          <mxGeometry width="50" height="50" relative="1" as="geometry">
            <mxPoint x="1030" y="610" as="sourcePoint" />
            <mxPoint x="1170" y="610" as="targetPoint" />
          </mxGeometry>
        </mxCell>
        <mxCell id="13KXB2IReWYyAwwkc7vi-2293" value="" style="endArrow=none;html=1;rounded=0;exitX=1;exitY=0;exitDx=0;exitDy=0;exitPerimeter=0;" edge="1" parent="1" source="13KXB2IReWYyAwwkc7vi-2272" target="13KXB2IReWYyAwwkc7vi-2288">
          <mxGeometry width="50" height="50" relative="1" as="geometry">
            <mxPoint x="1040" y="620" as="sourcePoint" />
            <mxPoint x="1362" y="402" as="targetPoint" />
          </mxGeometry>
        </mxCell>
        <mxCell id="13KXB2IReWYyAwwkc7vi-2294" value="" style="endArrow=none;html=1;rounded=0;exitX=1;exitY=0.5;exitDx=0;exitDy=0;entryX=0;entryY=0.5;entryDx=0;entryDy=0;entryPerimeter=0;exitPerimeter=0;" edge="1" parent="1" source="13KXB2IReWYyAwwkc7vi-2271" target="13KXB2IReWYyAwwkc7vi-2289">
          <mxGeometry width="50" height="50" relative="1" as="geometry">
            <mxPoint x="1050" y="630" as="sourcePoint" />
            <mxPoint x="1190" y="630" as="targetPoint" />
          </mxGeometry>
        </mxCell>
        <mxCell id="13KXB2IReWYyAwwkc7vi-2295" value="" style="endArrow=none;html=1;rounded=0;exitX=1;exitY=0.5;exitDx=0;exitDy=0;entryX=0;entryY=0.5;entryDx=0;entryDy=0;entryPerimeter=0;exitPerimeter=0;" edge="1" parent="1" source="13KXB2IReWYyAwwkc7vi-2270" target="13KXB2IReWYyAwwkc7vi-2289">
          <mxGeometry width="50" height="50" relative="1" as="geometry">
            <mxPoint x="1060" y="640" as="sourcePoint" />
            <mxPoint x="1200" y="640" as="targetPoint" />
          </mxGeometry>
        </mxCell>
        <mxCell id="13KXB2IReWYyAwwkc7vi-2296" value="" style="endArrow=none;html=1;rounded=0;exitX=1;exitY=0.5;exitDx=0;exitDy=0;entryX=0;entryY=0.5;entryDx=0;entryDy=0;entryPerimeter=0;exitPerimeter=0;" edge="1" parent="1" source="13KXB2IReWYyAwwkc7vi-2269" target="13KXB2IReWYyAwwkc7vi-2289">
          <mxGeometry width="50" height="50" relative="1" as="geometry">
            <mxPoint x="1070" y="650" as="sourcePoint" />
            <mxPoint x="1210" y="650" as="targetPoint" />
          </mxGeometry>
        </mxCell>
        <mxCell id="13KXB2IReWYyAwwkc7vi-2297" value="" style="endArrow=none;html=1;rounded=0;exitX=1;exitY=0.5;exitDx=0;exitDy=0;entryX=0;entryY=0.5;entryDx=0;entryDy=0;entryPerimeter=0;exitPerimeter=0;" edge="1" parent="1" source="13KXB2IReWYyAwwkc7vi-2268" target="13KXB2IReWYyAwwkc7vi-2289">
          <mxGeometry width="50" height="50" relative="1" as="geometry">
            <mxPoint x="1080" y="660" as="sourcePoint" />
            <mxPoint x="1220" y="660" as="targetPoint" />
          </mxGeometry>
        </mxCell>
        <mxCell id="13KXB2IReWYyAwwkc7vi-2298" value="" style="shape=mxgraph.cisco.switches.layer_3_switch;sketch=0;html=1;pointerEvents=1;dashed=0;fillColor=#036897;strokeColor=#ffffff;strokeWidth=2;verticalLabelPosition=bottom;verticalAlign=top;align=center;outlineConnect=0;" vertex="1" parent="1">
          <mxGeometry x="1790" y="591" width="64" height="64" as="geometry" />
        </mxCell>
        <mxCell id="13KXB2IReWYyAwwkc7vi-2299" value="" style="endArrow=none;html=1;rounded=0;entryX=1;entryY=0.5;entryDx=0;entryDy=0;entryPerimeter=0;exitX=0;exitY=0.5;exitDx=0;exitDy=0;exitPerimeter=0;" edge="1" parent="1" source="13KXB2IReWYyAwwkc7vi-2298" target="13KXB2IReWYyAwwkc7vi-2288">
          <mxGeometry width="50" height="50" relative="1" as="geometry">
            <mxPoint x="1120" y="620" as="sourcePoint" />
            <mxPoint x="1170" y="570" as="targetPoint" />
          </mxGeometry>
        </mxCell>
        <mxCell id="13KXB2IReWYyAwwkc7vi-2300" value="" style="endArrow=none;html=1;rounded=0;entryX=1;entryY=0.5;entryDx=0;entryDy=0;entryPerimeter=0;exitX=0;exitY=0.5;exitDx=0;exitDy=0;exitPerimeter=0;" edge="1" parent="1" target="13KXB2IReWYyAwwkc7vi-2289">
          <mxGeometry width="50" height="50" relative="1" as="geometry">
            <mxPoint x="1800" y="633" as="sourcePoint" />
            <mxPoint x="1554" y="402" as="targetPoint" />
          </mxGeometry>
        </mxCell>
        <mxCell id="13KXB2IReWYyAwwkc7vi-2301" value="&lt;font style=&quot;font-size: 24px;&quot;&gt;Core&lt;/font&gt;" style="text;html=1;align=center;verticalAlign=middle;whiteSpace=wrap;rounded=0;" vertex="1" parent="1">
          <mxGeometry x="1752" y="670" width="140" height="65" as="geometry" />
        </mxCell>
        <mxCell id="13KXB2IReWYyAwwkc7vi-2302" value="&lt;span style=&quot;font-size: 24px;&quot;&gt;contribution&lt;/span&gt;" style="text;html=1;align=center;verticalAlign=middle;whiteSpace=wrap;rounded=0;" vertex="1" parent="1">
          <mxGeometry x="1452" y="880" width="140" height="65" as="geometry" />
        </mxCell>
        <mxCell id="13KXB2IReWYyAwwkc7vi-2303" value="&lt;span style=&quot;font-size: 24px;&quot;&gt;contribution&lt;/span&gt;" style="text;html=1;align=center;verticalAlign=middle;whiteSpace=wrap;rounded=0;" vertex="1" parent="1">
          <mxGeometry x="1452" y="452.5" width="140" height="65" as="geometry" />
        </mxCell>
        <mxCell id="13KXB2IReWYyAwwkc7vi-2304" value="&lt;span style=&quot;font-size: 24px;&quot;&gt;access (24 ports)&lt;/span&gt;" style="text;html=1;align=center;verticalAlign=middle;whiteSpace=wrap;rounded=0;" vertex="1" parent="1">
          <mxGeometry x="1111" y="1020" width="140" height="65" as="geometry" />
        </mxCell>
        <mxCell id="13KXB2IReWYyAwwkc7vi-2305" value="&lt;span style=&quot;font-size: 24px;&quot;&gt;access (8 ports)&lt;/span&gt;" style="text;html=1;align=center;verticalAlign=middle;whiteSpace=wrap;rounded=0;" vertex="1" parent="1">
          <mxGeometry x="921" y="150" width="140" height="65" as="geometry" />
        </mxCell>
        <mxCell id="13KXB2IReWYyAwwkc7vi-2316" style="edgeStyle=orthogonalEdgeStyle;rounded=0;orthogonalLoop=1;jettySize=auto;html=1;exitX=1;exitY=0.5;exitDx=0;exitDy=0;exitPerimeter=0;" edge="1" parent="1" source="13KXB2IReWYyAwwkc7vi-2306">
          <mxGeometry relative="1" as="geometry">
            <mxPoint x="2670" y="623.6363636363635" as="targetPoint" />
          </mxGeometry>
        </mxCell>
        <mxCell id="13KXB2IReWYyAwwkc7vi-2306" value="" style="shape=mxgraph.cisco.switches.layer_3_switch;sketch=0;html=1;pointerEvents=1;dashed=0;fillColor=#036897;strokeColor=#ffffff;strokeWidth=2;verticalLabelPosition=bottom;verticalAlign=top;align=center;outlineConnect=0;" vertex="1" parent="1">
          <mxGeometry x="2430" y="591" width="64" height="64" as="geometry" />
        </mxCell>
        <mxCell id="13KXB2IReWYyAwwkc7vi-2309" value="" style="shape=mxgraph.cisco.security.router_firewall;sketch=0;html=1;pointerEvents=1;dashed=0;fillColor=#036897;strokeColor=#ffffff;strokeWidth=2;verticalLabelPosition=bottom;verticalAlign=top;align=center;outlineConnect=0;" vertex="1" parent="1">
          <mxGeometry x="2310" y="299" width="78" height="62" as="geometry" />
        </mxCell>
        <mxCell id="13KXB2IReWYyAwwkc7vi-2310" value="&lt;font style=&quot;font-size: 24px;&quot;&gt;Core&lt;/font&gt;" style="text;html=1;align=center;verticalAlign=middle;whiteSpace=wrap;rounded=0;" vertex="1" parent="1">
          <mxGeometry x="2362" y="720" width="140" height="65" as="geometry" />
        </mxCell>
        <mxCell id="13KXB2IReWYyAwwkc7vi-2312" value="&lt;span style=&quot;font-size: 24px;&quot;&gt;Router Firewall&lt;/span&gt;" style="text;html=1;align=center;verticalAlign=middle;whiteSpace=wrap;rounded=0;" vertex="1" parent="1">
          <mxGeometry x="2140" y="295" width="140" height="65" as="geometry" />
        </mxCell>
        <mxCell id="13KXB2IReWYyAwwkc7vi-2314" style="edgeStyle=orthogonalEdgeStyle;rounded=0;orthogonalLoop=1;jettySize=auto;html=1;exitX=1;exitY=0.5;exitDx=0;exitDy=0;exitPerimeter=0;entryX=0;entryY=0.5;entryDx=0;entryDy=0;entryPerimeter=0;" edge="1" parent="1" source="13KXB2IReWYyAwwkc7vi-2298" target="13KXB2IReWYyAwwkc7vi-2306">
          <mxGeometry relative="1" as="geometry" />
        </mxCell>
        <mxCell id="13KXB2IReWYyAwwkc7vi-2315" style="edgeStyle=orthogonalEdgeStyle;rounded=0;orthogonalLoop=1;jettySize=auto;html=1;exitX=1;exitY=0.5;exitDx=0;exitDy=0;exitPerimeter=0;entryX=0.5;entryY=1;entryDx=0;entryDy=0;entryPerimeter=0;" edge="1" parent="1" source="13KXB2IReWYyAwwkc7vi-2298" target="13KXB2IReWYyAwwkc7vi-2309">
          <mxGeometry relative="1" as="geometry" />
        </mxCell>
        <mxCell id="13KXB2IReWYyAwwkc7vi-2317" value="&lt;span style=&quot;font-size: 24px;&quot;&gt;Internet&lt;/span&gt;" style="text;html=1;align=center;verticalAlign=middle;whiteSpace=wrap;rounded=0;" vertex="1" parent="1">
          <mxGeometry x="2279" y="170" width="140" height="65" as="geometry" />
        </mxCell>
        <mxCell id="13KXB2IReWYyAwwkc7vi-2318" value="&lt;span style=&quot;font-size: 24px;&quot;&gt;Data Center&lt;/span&gt;" style="text;html=1;align=center;verticalAlign=middle;whiteSpace=wrap;rounded=0;" vertex="1" parent="1">
          <mxGeometry x="2720" y="600" width="140" height="65" as="geometry" />
        </mxCell>
        <mxCell id="13KXB2IReWYyAwwkc7vi-2319" style="edgeStyle=orthogonalEdgeStyle;rounded=0;orthogonalLoop=1;jettySize=auto;html=1;exitX=0.5;exitY=0;exitDx=0;exitDy=0;exitPerimeter=0;entryX=0.516;entryY=1.207;entryDx=0;entryDy=0;entryPerimeter=0;" edge="1" parent="1" source="13KXB2IReWYyAwwkc7vi-2309" target="13KXB2IReWYyAwwkc7vi-2317">
          <mxGeometry relative="1" as="geometry">
            <Array as="points">
              <mxPoint x="2349" y="267" />
              <mxPoint x="2350" y="249" />
            </Array>
          </mxGeometry>
        </mxCell>
      </root>
    </mxGraphModel>
  </diagram>
</mxfile>
